<svg xmlns="http://www.w3.org/2000/svg" viewBox="0 0 446.6 446.6"><circle cx="223.3" cy="223.3" r="223.3" fill="#21d762"/><path d="M343 273v-40a39 39 0 00-5-17l-24-44c-3-5-9-9-15-9h-39a11 11 0 00-11 12v108h10c4-14 17-25 33-25a32 32 0 0130 18c3 5 6 7 10 7 6 0 11-5 11-10zm-8-1c0 2-1 3-2 3-2 0-2-1-2-2-8-15-23-24-39-24a43 43 0 00-34 17h-1v-91a3 3 0 013-3h39a11 11 0 018 3l24 44a24 24 0 014 13zM224 129H104v154h26a34 34 0 0167 0h44V146a17 17 0 00-17-17zm8 146h-29a43 43 0 00-79 0h-12V138h112c5 0 8 3 8 8z"/><path d="M292 266a26 26 0 1026 26 25 25 0 00-26-26zm0 43a17 17 0 1117-17 17 17 0 01-17 17zM164 266a26 26 0 00-26 26 26 26 0 1026-26zm0 43a17 17 0 1117-17 17 17 0 01-17 17zM299 181h-33v42h58zm-24 8h20l14 26h-34z"/><circle cx="163.8" cy="291.7" r="6.4"/><circle cx="292.1" cy="291.7" r="6.4"/></svg>